{"title":"Main Krishna Hoon 2013 Hindi Movies HDDVD Rip XviD ESubs New Sou","uid":8242129,"size":730527978,"categoryP":"video","categoryS":"movies","magnet":"?xt=urn:btih:a875bd70a679799ae071faa968ab615d3d449f15&amp;dn=Main+Krishna+Hoon+2013+Hindi+Movies+HDDVD+Rip+XviD+ESubs+New+Sou&amp;tr=udp%3A%2F%2Ftracker.openbittorrent.com%3A80&amp;tr=udp%3A%2F%2Fopen.demonii.com%3A1337&amp;tr=udp%3A%2F%2Ftracker.coppersurfer.tk%3A6969&amp;tr=udp%3A%2F%2Fexodus.desync.com%3A6969","seeders":1,"leechers":0,"uploader":"basicssom","files":2,"time":1362981947,"description":"Main Krishna Hoon 2013 Hindi Movies HDDVD Rip XviD ESubs New Source Sample Included ~ rDX\n\nScreen Shots :\n &lt;a href=&quot;\nhttp://myimghosting.serveftp.com/13/MainKrishnaHoon.html&quot; rel=&quot;nofollow&quot; target=&quot;_NEW&quot;&gt;\nhttp://myimghosting.serveftp.com/13/MainKrishnaHoon.html&lt;/a&gt;\n &lt;a href=&quot;\nhttp://myimghost.cwahi.net/MainKrishnaHoon.html&quot; rel=&quot;nofollow&quot; target=&quot;_NEW&quot;&gt;\nhttp://myimghost.cwahi.net/MainKrishnaHoon.html&lt;/a&gt;\n\n\nFormat                                   : AVI\nFormat/Info                              : Audio Video Interleave\nFile size                                : 682 MiB\nDuration                                 : 1h 59mn\nOverall bit rate                         : 797 Kbps\nWriting library                          : MPlayer\n\nVideo\nID                                       : 0\nFormat                                   : MPEG-4 Visual\nFormat profile                           : Advanced Simple@L5\nFormat settings, BVOP                    : 3\nFormat settings, QPel                    : No\nFormat settings, GMC                     : No warppoints\nFormat settings, Matrix                  : Default (MPEG)\nCodec ID                                 : XVID\nCodec ID/Hint                            : XviD\nDuration                                 : 1h 59mn\nBit rate                                 : 663 Kbps\nWidth                                    : 688 pixels\nHeight                                   : 304 pixels\nDisplay aspect ratio                     : 2.25:1\nFrame rate                               : 29.970 fps\nColor space                              : YUV\nChroma subsampling                       : 4:2:0\nBit depth                                : 8 bits\nScan type                                : Progressive\nCompression mode                         : Lossy\nBits/(Pixel*Frame)                       : 0.106\nStream size                              : 567 MiB (83%)\nWriting library                          : XviD 1.2.1 (UTC 2008-12-04)\n\nAudio\nID                                       : 1\nFormat                                   : AC-3\nFormat/Info                              : Audio Coding 3\nMode extension                           : CM (complete main)\nFormat settings, Endianness              : Big\nCodec ID                                 : 2000\nDuration                                 : 1h 59mn\nBit rate mode                            : Constant\nBit rate                                 : 128 Kbps\nChannel(s)                               : 6 channels\nChannel positions                        : Front: L C R, Side: L R, LFE\nSampling rate                            : 48.0 KHz\nBit depth                                : 16 bits\nCompression mode                         : Lossy\nStream size                              : 109 MiB (16%)\nAlignment                                : Split accross interleaves\nInterleave, duration                     : 500 ms (14.98 video frames)\nInterleave, preload duration             : 500 ms","torrent":{"xt":"urn:btih:a875bd70a679799ae071faa968ab615d3d449f15","amp;dn":"Main+Krishna+Hoon+2013+Hindi+Movies+HDDVD+Rip+XviD+ESubs+New+Sou","amp;tr":["udp%3A%2F%2Ftracker.openbittorrent.com%3A80","udp%3A%2F%2Fopen.demonii.com%3A1337","udp%3A%2F%2Ftracker.coppersurfer.tk%3A6969","udp%3A%2F%2Fexodus.desync.com%3A6969"],"infoHash":"a875bd70a679799ae071faa968ab615d3d449f15","infoHashBuffer":{"type":"Buffer","data":[168,117,189,112,166,121,121,154,224,113,250,169,104,171,97,93,61,68,159,21]},"announce":[],"urlList":[]}}